<mxfile host="Electron" modified="2023-07-14T18:15:51.669Z" agent="Mozilla/5.0 (Windows NT 10.0; Win64; x64) AppleWebKit/537.36 (KHTML, like Gecko) draw.io/21.6.1 Chrome/112.0.5615.204 Electron/24.6.1 Safari/537.36" etag="PiY_ajkDQoj-kFfh--hq" version="21.6.1" type="device">
  <diagram name="Страница 1" id="QxlDPuZjoWmrwsd__01V">
    <mxGraphModel dx="1036" dy="702" grid="1" gridSize="10" guides="1" tooltips="1" connect="1" arrows="1" fold="1" page="1" pageScale="1" pageWidth="827" pageHeight="1169" math="0" shadow="0">
      <root>
        <mxCell id="0" />
        <mxCell id="1" parent="0" />
        <mxCell id="gG8dBJXRZ495w3mCvvzT-5" value="" style="edgeStyle=orthogonalEdgeStyle;rounded=0;orthogonalLoop=1;jettySize=auto;html=1;" edge="1" parent="1" source="gG8dBJXRZ495w3mCvvzT-1" target="gG8dBJXRZ495w3mCvvzT-4">
          <mxGeometry relative="1" as="geometry" />
        </mxCell>
        <mxCell id="gG8dBJXRZ495w3mCvvzT-1" value="Start" style="ellipse;whiteSpace=wrap;html=1;" vertex="1" parent="1">
          <mxGeometry x="360" y="30" width="120" height="50" as="geometry" />
        </mxCell>
        <mxCell id="gG8dBJXRZ495w3mCvvzT-8" value="" style="edgeStyle=orthogonalEdgeStyle;rounded=0;orthogonalLoop=1;jettySize=auto;html=1;" edge="1" parent="1" source="gG8dBJXRZ495w3mCvvzT-2" target="gG8dBJXRZ495w3mCvvzT-7">
          <mxGeometry relative="1" as="geometry" />
        </mxCell>
        <mxCell id="gG8dBJXRZ495w3mCvvzT-2" value="newArray [] = new string [array.Length];&lt;br&gt;count = 0" style="whiteSpace=wrap;html=1;" vertex="1" parent="1">
          <mxGeometry x="310" y="180" width="220" height="60" as="geometry" />
        </mxCell>
        <mxCell id="gG8dBJXRZ495w3mCvvzT-6" value="" style="edgeStyle=orthogonalEdgeStyle;rounded=0;orthogonalLoop=1;jettySize=auto;html=1;" edge="1" parent="1" source="gG8dBJXRZ495w3mCvvzT-4" target="gG8dBJXRZ495w3mCvvzT-2">
          <mxGeometry relative="1" as="geometry" />
        </mxCell>
        <mxCell id="gG8dBJXRZ495w3mCvvzT-4" value="input array[]" style="shape=parallelogram;perimeter=parallelogramPerimeter;whiteSpace=wrap;html=1;fixedSize=1;" vertex="1" parent="1">
          <mxGeometry x="360" y="100" width="120" height="60" as="geometry" />
        </mxCell>
        <mxCell id="gG8dBJXRZ495w3mCvvzT-10" value="" style="edgeStyle=orthogonalEdgeStyle;rounded=0;orthogonalLoop=1;jettySize=auto;html=1;" edge="1" parent="1" source="gG8dBJXRZ495w3mCvvzT-7" target="gG8dBJXRZ495w3mCvvzT-9">
          <mxGeometry relative="1" as="geometry" />
        </mxCell>
        <mxCell id="gG8dBJXRZ495w3mCvvzT-7" value="for i = 0; &lt;br&gt;i &amp;lt; array.Length;&lt;br&gt;&amp;nbsp;i++" style="shape=hexagon;perimeter=hexagonPerimeter2;whiteSpace=wrap;html=1;fixedSize=1;" vertex="1" parent="1">
          <mxGeometry x="340" y="260" width="160" height="60" as="geometry" />
        </mxCell>
        <mxCell id="gG8dBJXRZ495w3mCvvzT-12" value="" style="edgeStyle=orthogonalEdgeStyle;rounded=0;orthogonalLoop=1;jettySize=auto;html=1;" edge="1" parent="1" source="gG8dBJXRZ495w3mCvvzT-9" target="gG8dBJXRZ495w3mCvvzT-11">
          <mxGeometry relative="1" as="geometry" />
        </mxCell>
        <mxCell id="gG8dBJXRZ495w3mCvvzT-9" value="array [i].Length &amp;lt;= 3" style="rhombus;whiteSpace=wrap;html=1;" vertex="1" parent="1">
          <mxGeometry x="350" y="340" width="140" height="60" as="geometry" />
        </mxCell>
        <mxCell id="gG8dBJXRZ495w3mCvvzT-14" value="" style="edgeStyle=orthogonalEdgeStyle;rounded=0;orthogonalLoop=1;jettySize=auto;html=1;" edge="1" parent="1" source="gG8dBJXRZ495w3mCvvzT-11" target="gG8dBJXRZ495w3mCvvzT-13">
          <mxGeometry relative="1" as="geometry" />
        </mxCell>
        <mxCell id="gG8dBJXRZ495w3mCvvzT-11" value="newArray [count] = array [i];&lt;br&gt;count ++;" style="whiteSpace=wrap;html=1;" vertex="1" parent="1">
          <mxGeometry x="340" y="420" width="160" height="50" as="geometry" />
        </mxCell>
        <mxCell id="gG8dBJXRZ495w3mCvvzT-16" value="" style="edgeStyle=orthogonalEdgeStyle;rounded=0;orthogonalLoop=1;jettySize=auto;html=1;" edge="1" parent="1" source="gG8dBJXRZ495w3mCvvzT-13" target="gG8dBJXRZ495w3mCvvzT-15">
          <mxGeometry relative="1" as="geometry" />
        </mxCell>
        <mxCell id="gG8dBJXRZ495w3mCvvzT-13" value="print newArray[];" style="shape=document;whiteSpace=wrap;html=1;boundedLbl=1;" vertex="1" parent="1">
          <mxGeometry x="360" y="490" width="120" height="40" as="geometry" />
        </mxCell>
        <mxCell id="gG8dBJXRZ495w3mCvvzT-15" value="end" style="ellipse;whiteSpace=wrap;html=1;" vertex="1" parent="1">
          <mxGeometry x="380" y="545" width="80" height="45" as="geometry" />
        </mxCell>
        <mxCell id="gG8dBJXRZ495w3mCvvzT-17" value="" style="endArrow=classic;html=1;rounded=0;exitX=0;exitY=0.5;exitDx=0;exitDy=0;entryX=0;entryY=0.5;entryDx=0;entryDy=0;" edge="1" parent="1" source="gG8dBJXRZ495w3mCvvzT-11" target="gG8dBJXRZ495w3mCvvzT-7">
          <mxGeometry width="50" height="50" relative="1" as="geometry">
            <mxPoint x="390" y="390" as="sourcePoint" />
            <mxPoint x="440" y="340" as="targetPoint" />
            <Array as="points">
              <mxPoint x="280" y="445" />
              <mxPoint x="280" y="360" />
              <mxPoint x="280" y="290" />
            </Array>
          </mxGeometry>
        </mxCell>
        <mxCell id="gG8dBJXRZ495w3mCvvzT-18" value="" style="endArrow=classic;html=1;rounded=0;exitX=1;exitY=0.5;exitDx=0;exitDy=0;entryX=1;entryY=0.5;entryDx=0;entryDy=0;" edge="1" parent="1" source="gG8dBJXRZ495w3mCvvzT-7" target="gG8dBJXRZ495w3mCvvzT-13">
          <mxGeometry width="50" height="50" relative="1" as="geometry">
            <mxPoint x="390" y="390" as="sourcePoint" />
            <mxPoint x="440" y="340" as="targetPoint" />
            <Array as="points">
              <mxPoint x="560" y="290" />
              <mxPoint x="560" y="400" />
              <mxPoint x="560" y="510" />
            </Array>
          </mxGeometry>
        </mxCell>
        <mxCell id="gG8dBJXRZ495w3mCvvzT-19" value="Yes" style="text;html=1;strokeColor=none;fillColor=none;align=center;verticalAlign=middle;whiteSpace=wrap;rounded=0;" vertex="1" parent="1">
          <mxGeometry x="370" y="390" width="60" height="30" as="geometry" />
        </mxCell>
        <mxCell id="gG8dBJXRZ495w3mCvvzT-20" value="" style="endArrow=classic;html=1;rounded=0;exitX=0;exitY=0.5;exitDx=0;exitDy=0;" edge="1" parent="1" source="gG8dBJXRZ495w3mCvvzT-9">
          <mxGeometry width="50" height="50" relative="1" as="geometry">
            <mxPoint x="390" y="390" as="sourcePoint" />
            <mxPoint x="280" y="370" as="targetPoint" />
          </mxGeometry>
        </mxCell>
        <mxCell id="gG8dBJXRZ495w3mCvvzT-21" value="No" style="text;html=1;strokeColor=none;fillColor=none;align=center;verticalAlign=middle;whiteSpace=wrap;rounded=0;" vertex="1" parent="1">
          <mxGeometry x="300" y="340" width="60" height="30" as="geometry" />
        </mxCell>
      </root>
    </mxGraphModel>
  </diagram>
</mxfile>
